<svg xmlns="http://www.w3.org/2000/svg" viewBox="0 0 128 128" width="128" height="128">
  <!-- Shield background -->
  <path
    d="M64 8 L112 28 L112 68 C112 96 64 120 64 120 C64 120 16 96 16 68 L16 28 Z"
    fill="#00bcd4"
    stroke="#0097a7"
    stroke-width="3"
  />
  <!-- Inner shield highlight -->
  <path
    d="M64 20 L100 36 L100 68 C100 90 64 108 64 108 C64 108 28 90 28 68 L28 36 Z"
    fill="#0097a7"
    opacity="0.5"
  />
  <!-- Scroll / stop icon: hand symbol -->
  <rect x="50" y="44" width="8" height="28" rx="4" fill="#fff"/>
  <rect x="62" y="48" width="8" height="24" rx="4" fill="#fff"/>
  <rect x="74" y="50" width="8" height="22" rx="4" fill="#fff"/>
  <!-- Palm base -->
  <rect x="50" y="68" width="32" height="10" rx="5" fill="#fff"/>
</svg>
